<svg xmlns="http://www.w3.org/2000/svg" viewBox="0 0 674 716" width="674" height="716">
	<defs>
		<clipPath clipPathUnits="userSpaceOnUse" id="cp1">
			<path d="M136 180L562 180C566.42 180 570 183.58 570 188L570 268C570 272.42 566.42 276 562 276L136 276C131.58 276 128 272.42 128 268L128 188C128 183.58 131.58 180 136 180Z" />
		</clipPath>
		<clipPath clipPathUnits="userSpaceOnUse" id="cp2">
			<path d="M136 182L562 182C565.32 182 568 184.68 568 188L568 268C568 271.32 565.32 274 562 274L136 274C132.68 274 130 271.32 130 268L130 188C130 184.68 132.68 182 136 182Z" />
		</clipPath>
		<clipPath clipPathUnits="userSpaceOnUse" id="cp3">
			<path d="M176 148C211.35 148 240 119.35 240 84C240 48.65 211.35 20 176 20C140.65 20 112 48.65 112 84C112 119.35 140.65 148 176 148Z" />
		</clipPath>
		<clipPath clipPathUnits="userSpaceOnUse" id="cp4">
			<path d="M504 279L618 279L618 602L504 602L504 279Z" />
		</clipPath>
	</defs>
	<style>
		tspan { white-space:pre }
		.shp0 { fill: #ffffff } 
		.shp1 { fill: #f9eef9 } 
		.shp2 { fill: #f9eeed } 
		.shp3 { fill: none;stroke: #ffffff;stroke-width: 4 } 
		.shp4 { fill: #e5a7e2 } 
		.shp5 { fill: #f1feff } 
		.shp6 { opacity: 0.078;fill: #ff0000 } 
		.shp7 { fill: #2999a7 } 
		.shp8 { fill: #f7f7f7 } 
		.shp9 { fill: #ffe3ca } 
		.shp10 { fill: #fcd2b1 } 
		.shp11 { fill: #fcf8ee } 
		.shp12 { fill: #706a37 } 
		.shp13 { fill: #fff27d } 
		.shp14 { fill: #ffe33b } 
		.shp15 { fill: #f9d438 } 
		.shp16 { fill: #f8ee4f } 
		.shp17 { fill: #fffac1 } 
		.shp18 { fill: #7f7841 } 
		.shp19 { fill: #8c8448 } 
		.shp20 { fill: #f6edd6 } 
		.shp21 { fill: #7e5c62 } 
		.shp22 { fill: #ff4f19 } 
		.shp23 { fill: #e3001e } 
		.shp24 { fill: #60dc4d } 
		.shp25 { fill: #ff8c62 } 
		.shp26 { fill: #00c37a } 
		.shp27 { fill: #f5dbd8 } 
		.shp28 { fill: #eaf8fa } 
		.shp29 { fill: #c8e7eb } 
	</style>
	<g id="Layer">
		<path id="Layer" class="shp0" d="M79 77.6C79 68.64 79 64.16 80.74 60.74C82.28 57.73 84.73 55.28 87.74 53.74C91.16 52 95.64 52 104.6 52L458 52C514 52 542.01 52 563.4 62.9C582.22 72.49 597.51 87.78 607.1 106.6C618 127.99 618 156 618 212L618 570.4C618 579.36 618 583.84 616.26 587.26C614.72 590.27 612.27 592.72 609.26 594.26C605.84 596 601.36 596 592.4 596L104.6 596C95.64 596 91.16 596 87.74 594.26C84.73 592.72 82.28 590.27 80.74 587.26C79 583.84 79 579.36 79 570.4L79 77.6Z" />
	</g>
	<path id="Layer" class="shp1" d="M280 100L434 100C438.42 100 442 103.58 442 108L442 108C442 112.42 438.42 116 434 116L280 116C275.58 116 272 112.42 272 108L272 108C272 103.58 275.58 100 280 100Z" />
	<path id="Layer" class="shp1" d="M276 124L390 124C392.21 124 394 125.79 394 128L394 128C394 130.21 392.21 132 390 132L276 132C273.79 132 272 130.21 272 128L272 128C272 125.79 273.79 124 276 124Z" />
	<g id="Layer">
		<path id="Layer" class="shp2" d="M587 133C612.4 133 633 112.41 633 87C633 61.59 612.4 41 587 41C561.6 41 541 61.59 541 87C541 112.41 561.6 133 587 133Z" />
		<path id="Layer" class="shp3" d="M631 87C631 111.3 611.3 131 587 131C562.7 131 543 111.3 543 87C543 62.7 562.7 43 587 43C611.3 43 631 62.7 631 87Z" />
	</g>
	<path id="Layer" class="shp4" d="M587 115C602.46 115 615 102.46 615 87C615 71.54 602.46 59 587 59C571.54 59 559 71.54 559 87C559 102.46 571.54 115 587 115Z" />
	<g id="Layer">
		<path id="Layer" class="shp5" d="M136 180L562 180C566.42 180 570 183.58 570 188L570 268C570 272.42 566.42 276 562 276L136 276C131.58 276 128 272.42 128 268L128 188C128 183.58 131.58 180 136 180Z" />
	</g>
	<g id="Clip-Path" clip-path="url(#cp1)">
		<g id="Layer">
			<path id="Layer" class="shp6" d="M24.1 -70L785.32 162.73L674.22 526.12L-87 293.4L24.1 -70Z" />
		</g>
	</g>
	<path id="Layer" class="shp3" d="M136 182L562 182C565.32 182 568 184.68 568 188L568 268C568 271.32 565.32 274 562 274L136 274C132.68 274 130 271.32 130 268L130 188C130 184.68 132.68 182 136 182Z" />
	<g id="Clip-Path" clip-path="url(#cp2)">
		<g id="Layer">
		</g>
	</g>
	<path id="Layer" class="shp4" d="M349 252C362.25 252 373 241.25 373 228C373 214.75 362.25 204 349 204C335.75 204 325 214.75 325 228C325 241.25 335.75 252 349 252Z" />
	<path id="Layer" fill-rule="evenodd" class="shp0" d="M339 225.81C339 220.4 343.48 216 349 216C354.52 216 359 220.4 359 225.81C359 231.26 354.72 235 349.18 239.84C349.12 239.89 349.06 239.95 349 240C348.94 239.95 348.88 239.89 348.82 239.84C343.28 235 339 231.26 339 225.81ZM341 226C341 230.42 344.58 234 349 234C353.42 234 357 230.42 357 226C357 221.58 353.42 218 349 218C344.58 218 341 221.58 341 226Z" />
	<g id="Layer">
		<path id="Layer" class="shp4" d="M176 148C211.35 148 240 119.35 240 84C240 48.65 211.35 20 176 20C140.65 20 112 48.65 112 84C112 119.35 140.65 148 176 148Z" />
	</g>
	<g id="Clip-Path" clip-path="url(#cp3)">
		<g id="Layer">
			<path id="Layer" fill-rule="evenodd" class="shp7" d="M213.16 94.05C205.67 85.33 204.51 86.52 204.49 62.13C204.47 37.74 173.49 40.84 173.49 40.84C153.76 40.26 153.92 66.74 143.49 74.76C133.06 82.78 141.49 87.76 141.49 87.76C123.49 125.58 199 131.68 200.85 131.66C202.7 131.64 221.3 127.15 222.85 115.36C223.94 105.5 220.65 102.77 213.16 94.05Z" />
			<path id="Layer" fill-rule="evenodd" class="shp8" d="M203.18 156.19C202.45 145.19 205.69 124.72 206.03 117.13C206.37 109.54 148.03 97.98 143.03 120.56C141.65 130.85 131.6 198.85 122.86 214.76C122.86 214.76 139.64 225.76 141.19 215.43C142.74 205.1 153.75 177.6 158.47 176.97C163.19 176.34 168.07 188.14 194.83 183.15C194.83 183.15 200.61 213.22 202.83 216.76C204.28 216.36 214.98 216.3 217.83 212.1C217.84 212.1 204.26 172.48 203.18 156.19Z" />
			<path id="Layer" fill-rule="evenodd" class="shp9" d="M195.18 106.61C195.18 106.61 183.71 105.48 177.86 104.61L177.63 104.61C176.63 100.99 174.85 93.45 175.53 89.99C176.43 85.35 163.96 80.34 163.96 80.34C163.96 80.34 166.36 96.02 163.96 105.34L163.89 105.34C163.89 105.34 152.59 107.22 147.89 111C147.89 111 145.17 112 145.22 119C145.22 119 180.15 123.31 204.22 116C204.18 115.93 205.08 108.33 195.18 106.61Z" />
			<path id="Layer" fill-rule="evenodd" class="shp10" d="M175.68 93.28C175.68 93.28 168.33 88.07 167.28 83.2C167.28 83.2 169.69 94.2 176.16 98.32L175.68 93.28Z" />
			<path id="Layer" fill-rule="evenodd" class="shp9" d="M184.42 52.7C164 56.47 163.86 80.43 163.86 80.43C187.12 115.63 193.97 79.03 195.69 65.73C197.41 52.43 184.42 52.7 184.42 52.7Z" />
			<path id="Layer" class="shp3" d="M238 84C238 118.24 210.24 146 176 146C141.76 146 114 118.24 114 84C114 49.76 141.76 22 176 22C210.24 22 238 49.76 238 84Z" />
		</g>
	</g>
	<g id="Layer">
		<path id="Layer" class="shp11" d="M64 308L302 308C310.85 308 318 315.15 318 324L318 628C318 636.85 310.85 644 302 644L64 644C55.15 644 48 636.85 48 628L48 324C48 315.15 55.15 308 64 308Z" />
		<path id="Layer" class="shp3" d="M64 310L302 310C309.74 310 316 316.26 316 324L316 628C316 635.74 309.74 642 302 642L64 642C56.26 642 50 635.74 50 628L50 324C50 316.26 56.26 310 64 310Z" />
	</g>
	<path id="Layer" fill-rule="evenodd" class="shp12" d="M121.41 452.02L120.22 458.73L114.17 463.06C111.94 461.42 109.34 459.41 109.3 458.1C109.23 455.88 112 452.34 112 452.34C113.84 451.29 118.74 452.15 121.41 452.02Z" />
	<path id="Layer" fill-rule="evenodd" class="shp13" d="M226.74 397L228.75 392.93C232.11 394.12 235.25 394.46 237.26 395.52C248.64 401.47 256.47 419.52 256.68 430.31C257.21 458.07 245.99 477.86 232.35 490.52C227.17 495.32 217.95 502.43 203.09 503.36C202.36 503.4 201.43 503.51 200.43 503.61L203.49 495.65L198.94 489.93C201.94 485.94 206.15 481.48 209.25 477.28C216.96 470.42 223.5 460.9 227.79 447.58C231.38 436.46 233.18 416.04 225.54 405.27C224.19 403.36 221.47 401.58 218.95 398.93L226.16 398.16L226.74 397Z" />
	<path id="Layer" fill-rule="evenodd" class="shp14" d="M256.68 430.31C256.47 419.52 248.64 401.47 237.26 395.52C235.25 394.46 232.11 394.12 228.75 392.93L226.74 397L226.16 398.16L226.14 398.16C232.9 405.87 237.44 416.92 237.99 424.55C239.96 452.25 229.78 472.59 216.81 485.94C213.87 488.95 209.55 492.87 203.4 495.89L200.43 503.61C201.43 503.51 202.36 503.4 203.09 503.36C217.95 502.43 227.17 495.32 232.35 490.52C245.99 477.86 257.21 458.08 256.68 430.31Z" />
	<path id="Layer" fill-rule="evenodd" class="shp13" d="M149.04 479.69L146.1 474.23C151.77 471.56 162.6 467.66 166.96 466.17C183.83 460.39 198.41 440.29 202.46 423.19C203.5 418.8 204.68 414.77 208.96 402.34C209.11 401.89 209.22 401.42 209.26 400.95L214.13 402.53L218.95 398.93L218.95 398.93C221.47 401.58 224.19 403.36 225.54 405.27C233.18 416.04 231.38 436.46 227.79 447.58C223.5 460.9 216.96 470.42 209.25 477.28C201.17 484.47 191.8 488.75 182.37 491.45C175.36 493.46 158.86 494.51 143.61 488.51L149.04 479.69Z" />
	<path id="Layer" fill-rule="evenodd" class="shp15" d="M225.54 405.27C224.19 403.36 221.47 401.58 218.95 398.93L218.95 398.93L215.72 401.34C219.28 412.8 216.64 428.79 213.07 438.04C208.04 451.1 200.98 460.23 192.9 466.65C184.43 473.38 174.84 477.13 165.27 479.31C161.71 480.12 155.79 480.55 148.9 479.93L143.61 488.51C158.86 494.51 175.36 493.46 182.37 491.45C191.8 488.75 201.17 484.47 209.25 477.28C216.96 470.42 223.5 460.9 227.79 447.58C231.38 436.46 233.18 416.04 225.54 405.27Z" />
	<path id="Layer" fill-rule="evenodd" class="shp16" d="M120.22 458.73L121.41 452.02C121.69 452.01 121.97 451.98 122.25 451.93C127.15 451 138.77 449.96 144.28 449.42C158.11 448.05 180.53 434.19 188.64 419.21C190.72 415.37 192.13 411.33 199.28 400.78C199.54 400.4 199.75 399.98 199.91 399.55L208.57 400.92L209.25 400.94L209.26 400.95C209.22 401.42 209.11 401.89 208.96 402.34C204.68 414.77 203.5 418.8 202.46 423.19C198.41 440.29 183.83 460.39 166.96 466.17C162.6 467.66 151.77 471.56 146.1 474.23C144.81 474.84 142.18 475.24 139.86 475.81C133.69 474.57 124.26 471.03 116.3 464.67C115.74 464.21 114.98 463.66 114.17 463.06L120.22 458.73Z" />
	<path id="Layer" fill-rule="evenodd" class="shp17" d="M199.91 399.55C199.75 399.99 190.72 415.37 188.64 419.21C180.53 434.19 158.11 448.05 144.28 449.42C138.77 449.96 127.15 451 122.25 451.93C121.97 451.98 121.69 452.01 121.41 452.02L120.22 458.73C120.22 458.73 135.89 462.57 148.02 459.59C161.52 456.28 184.27 444.37 192.38 429.39C194.47 425.55 205.8 400.48 205.8 400.48L199.91 399.55Z" />
	<path id="Layer" fill-rule="evenodd" class="shp18" d="M198.94 489.93L203.49 495.65L200.43 503.61C197.68 503.88 194.4 504.15 193.49 503.2C191.95 501.61 191.62 497.13 191.62 497.13C192.35 494.87 197.52 491.82 198.94 489.93L198.94 489.93Z" />
	<path id="Layer" fill-rule="evenodd" class="shp12" d="M218.95 398.93L218.95 398.93L214.13 402.53L209.26 400.95C209.87 395.53 204.7 388.15 204.7 388.15L204.71 384.2C204.71 384.2 201.46 379.32 203.64 375.36C203.88 375 204.27 374.79 204.7 374.78C204.7 374.78 204.7 374.78 204.7 374.78C206.86 374.51 211.16 376.43 211.16 376.43C211.36 376.63 211.54 376.83 211.7 377.04C214.5 380.43 213.41 383.05 213.47 385.51C213.63 391.98 216.17 395.99 218.95 398.93Z" />
	<path id="Layer" fill-rule="evenodd" class="shp19" d="M204.7 388.15C204.7 388.15 209.87 395.53 209.26 400.95L209.25 400.94L208.57 400.92L199.91 399.55C201.73 394.63 198.11 386.35 198.11 386.35L199.9 382.69C199.9 382.69 198.09 377.29 201.13 374.13L204.7 374.78C204.27 374.79 203.88 375 203.64 375.36C201.46 379.32 204.71 384.2 204.71 384.2L204.7 388.15Z" />
	<path id="Layer" fill-rule="evenodd" class="shp14" d="M149.2 481.5C149.09 481.5 149.02 481.5 149 481.5C148.01 481.48 147.21 480.66 147.23 479.66C147.25 478.66 148.08 477.87 149.07 477.89C151.99 477.85 154.9 477.52 157.75 476.92C158.73 476.72 159.68 477.36 159.88 478.33C160.07 479.31 159.44 480.26 158.46 480.46C155.41 481.1 152.31 481.44 149.2 481.5Z" />
	<path id="Layer" fill-rule="evenodd" class="shp15" d="M243.04 413.63C242.35 413.64 241.71 413.24 241.41 412.61C236.39 402.05 231.82 399.45 226.51 398.79C225.53 398.67 224.82 397.77 224.94 396.78C225.07 395.79 225.97 395.09 226.96 395.21C236.46 396.38 241.09 403.52 244.67 411.05C244.94 411.61 244.9 412.27 244.57 412.79C244.24 413.32 243.66 413.64 243.04 413.64L243.04 413.63Z" />
	<path id="Layer" fill-rule="evenodd" class="shp19" d="M228.75 392.93L226.74 397L226.16 398.16L218.95 398.93C216.17 395.99 213.63 391.98 213.47 385.51C213.41 383.05 214.5 380.43 211.7 377.04L212.06 376.91C216.69 378.59 216.86 381.52 218.07 383.74C221.07 389.26 225.04 391.62 228.75 392.93Z" />
	<path id="Layer" fill-rule="evenodd" class="shp12" d="M139.86 475.81C142.18 475.24 144.81 474.84 146.1 474.23L149.04 479.69L143.61 488.51C140.99 487.48 135.42 485.66 134.88 483.89C134.22 481.71 136.02 477.43 136.02 477.43C136.74 476.71 138.22 476.22 139.86 475.81Z" />
	<path id="Layer" class="shp20" d="M88 574L184 574C188.42 574 192 577.58 192 582L192 582C192 586.42 188.42 590 184 590L88 590C83.58 590 80 586.42 80 582L80 582C80 577.58 83.58 574 88 574Z" />
	<path id="Layer" class="shp20" d="M84 598L156 598C158.21 598 160 599.79 160 602L160 602C160 604.21 158.21 606 156 606L84 606C81.79 606 80 604.21 80 602L80 602C80 599.79 81.79 598 84 598Z" />
	<g id="Layer">
		<path id="Layer" class="shp2" d="M364 308L502 308C510.85 308 518 315.15 518 324L518 532C518 540.85 510.85 548 502 548L364 548C355.15 548 348 540.85 348 532L348 324C348 315.15 355.15 308 364 308Z" />
		<path id="Layer" class="shp3" d="M364 310L502 310C509.74 310 516 316.26 516 324L516 532C516 539.74 509.74 546 502 546L364 546C356.26 546 350 539.74 350 532L350 324C350 316.26 356.26 310 364 310Z" />
	</g>
	<path id="Layer" fill-rule="evenodd" class="shp21" d="M432.5 384.71C431.84 384.71 431.3 384.18 431.3 383.51C431.3 375.92 430.14 365.93 426.88 362.76C426.4 362.3 426.39 361.54 426.85 361.06C427.31 360.58 428.07 360.57 428.54 361.04C433.33 365.68 433.7 379.41 433.7 383.51C433.7 384.18 433.17 384.71 432.5 384.71Z" />
	<path id="Layer" fill-rule="evenodd" class="shp22" d="M449.33 379.92C445.08 379.27 441.74 380.25 438.79 381.11C436.68 381.73 434.69 382.31 432.5 382.31C430.31 382.31 428.32 381.73 426.21 381.11C423.27 380.25 419.92 379.27 415.67 379.92C408.56 381.01 400.08 385.15 400.08 398.7C400.08 411.51 404.32 429.02 416.27 436.24C419.42 438.14 423.03 437.58 426.85 436.99C428.71 436.71 430.62 436.41 432.5 436.41C434.38 436.41 436.3 436.71 438.15 436.99C439.99 437.28 441.77 437.55 443.48 437.55C445.33 437.55 447.1 437.23 448.73 436.24C460.68 429.02 464.92 411.51 464.92 398.7C464.92 385.15 456.45 381.01 449.33 379.92Z" />
	<path id="Layer" fill-rule="evenodd" class="shp23" d="M432.5 382.31L432.5 382.31C430.31 382.31 428.32 381.73 426.21 381.11C423.27 380.25 419.92 379.27 415.67 379.92C408.56 381.01 400.08 385.15 400.08 398.7C400.08 411.51 404.32 429.02 416.27 436.24C419.42 438.14 423.03 437.58 426.85 436.99C428.71 436.71 430.62 436.41 432.5 436.41L432.5 436.41L432.5 382.31L432.5 382.31Z" />
	<path id="Layer" fill-rule="evenodd" class="shp24" d="M449.23 363.99C449.38 362.88 449.36 361.83 449.23 360.83C448.24 360.7 447.19 360.69 446.09 360.83C438.91 361.75 432.34 368.33 431.42 375.52C431.28 376.63 431.3 377.68 431.43 378.68C432.42 378.81 433.47 378.82 434.57 378.68C441.75 377.76 448.31 371.18 449.23 363.99Z" />
	<path id="Layer" fill-rule="evenodd" class="shp25" d="M451.64 399.12C454.95 399.12 457.63 396.44 457.63 393.12C457.63 389.8 454.95 387.12 451.64 387.12C448.33 387.12 445.65 389.8 445.65 393.12C445.65 396.44 448.33 399.12 451.64 399.12Z" />
	<path id="Layer" fill-rule="evenodd" class="shp26" d="M449.13 360.83C448.17 360.71 447.16 360.69 446.09 360.83C438.91 361.75 432.34 368.33 431.42 375.52C431.29 376.6 431.3 377.62 431.42 378.58L449.13 360.83Z" />
	<path id="Layer" class="shp27" d="M377 491L423 491C427.42 491 431 494.58 431 499L431 499C431 503.42 427.42 507 423 507L377 507C372.58 507 369 503.42 369 499L369 499C369 494.58 372.58 491 377 491Z" />
	<path id="Layer" class="shp27" d="M373 515L409 515C411.21 515 413 516.79 413 519L413 519C413 521.21 411.21 523 409 523L373 523C370.79 523 369 521.21 369 519L369 519C369 516.79 370.79 515 373 515Z" />
	<g id="Clip-Path" clip-path="url(#cp4)">
		<g id="Layer">
			<g id="Layer">
				<path id="Layer" class="shp28" d="M564 308L702 308C710.85 308 718 315.15 718 324L718 532C718 540.85 710.85 548 702 548L564 548C555.15 548 548 540.85 548 532L548 324C548 315.15 555.15 308 564 308Z" />
				<path id="Layer" class="shp3" d="M564 310L702 310C709.74 310 716 316.26 716 324L716 532C716 539.74 709.74 546 702 546L564 546C556.26 546 550 539.74 550 532L550 324C550 316.26 556.26 310 564 310Z" />
			</g>
			<path id="Layer" class="shp29" d="M581 491L627 491C631.42 491 635 494.58 635 499L635 499C635 503.42 631.42 507 627 507L581 507C576.58 507 573 503.42 573 499L573 499C573 494.58 576.58 491 581 491Z" />
			<path id="Layer" class="shp29" d="M577 515L613 515C615.21 515 617 516.79 617 519L617 519C617 521.21 615.21 523 613 523L577 523C574.79 523 573 521.21 573 519L573 519C573 516.79 574.79 515 577 515Z" />
		</g>
	</g>
	<g id="Layer">
		<path id="Layer" class="shp4" d="M618 460C635.67 460 650 445.67 650 428C650 410.33 635.67 396 618 396C600.33 396 586 410.33 586 428C586 445.67 600.33 460 618 460Z" />
	</g>
	<path id="Layer" fill-rule="evenodd" class="shp0" d="M613 421.25L615.45 419L625 428L615.45 437L613 434.75L620.2 428L613 421.25Z" />
</svg>