<svg width="48" height="48" viewBox="0 0 48 48" fill="none" xmlns="http://www.w3.org/2000/svg">
<path d="M47.5 24C47.5 36.9787 36.9787 47.5 24 47.5C11.0213 47.5 0.5 36.9787 0.5 24C0.5 11.0213 11.0213 0.5 24 0.5C36.9787 0.5 47.5 11.0213 47.5 24Z" stroke="white" stroke-opacity="0.295743"/>
<path fill-rule="evenodd" clip-rule="evenodd" d="M13 17C13 16.4477 13.4477 16 14 16H34C34.5523 16 35 16.4477 35 17C35 17.5523 34.5523 18 34 18H14C13.4477 18 13 17.5523 13 17ZM13 24C13 23.4477 13.4477 23 14 23H34C34.5523 23 35 23.4477 35 24C35 24.5523 34.5523 25 34 25H14C13.4477 25 13 24.5523 13 24ZM14 30C13.4477 30 13 30.4477 13 31C13 31.5523 13.4477 32 14 32H34C34.5523 32 35 31.5523 35 31C35 30.4477 34.5523 30 34 30H14Z" fill="white"/>
</svg>
