<svg width="64" height="46" viewBox="0 0 64 46" fill="none" xmlns="http://www.w3.org/2000/svg">
<path fill-rule="evenodd" clip-rule="evenodd" d="M4.26663 0H19.2V2.13957H4.26663V0ZM1.06663 4.27915H41.6001C42.19 4.27915 42.6667 4.75841 42.6667 5.34887V11.7675H53.3334C53.6961 11.7675 54.0342 11.9525 54.2305 12.2585L63.8305 27.2353C63.9415 27.4074 64.0001 27.6096 64 27.8139V39.5814C64 40.173 63.5233 40.6511 62.9334 40.6511H57.5113C57.0022 43.6834 54.3664 46 51.2001 46C48.0338 46 45.3979 43.6834 44.8889 40.651H41.6166L41.6001 40.6511H21.2446C20.7355 43.6834 18.0997 46 14.9334 46C11.7671 46 9.13132 43.6834 8.62222 40.6511H1.06663C0.477876 40.6511 0 40.173 0 39.5814V5.34887C0 4.75841 0.477876 4.27915 1.06663 4.27915ZM8.62225 38.5116C9.13139 35.4793 11.7671 33.1628 14.9334 33.1628C18.0995 33.1628 20.7354 35.4793 21.2446 38.5116H40.5335V36.3721H22.4V34.2325H40.5335V12.8372V10.6977H4.26663V8.55817H40.5335V6.41859H2.13338V34.2325H7.46664V36.3721H2.13338V38.5116H8.62225ZM42.6667 38.5114H44.889C45.3982 35.4792 48.0339 33.1628 51.2001 33.1628C54.3664 33.1628 57.0022 35.4794 57.5113 38.5117H61.8667V36.3721H58.6667V34.2325H61.8667V28.1285L61.6651 27.8138H45.8668C45.277 27.8138 44.8002 27.3357 44.8002 26.7441V17.1162C44.8002 16.5257 45.277 16.0465 45.8668 16.0465H54.1223L52.751 13.907H42.6667V38.5114ZM60.2936 25.6742L55.4669 18.1441V18.1861H46.9335V25.6742H60.2936ZM10.6668 39.5814C10.6668 41.9412 12.5803 43.8604 14.9334 43.8604C17.2864 43.8604 19.2 41.9412 19.2 39.5814C19.2 37.2216 17.2864 35.3024 14.9334 35.3024C12.5804 35.3024 10.6668 37.2214 10.6668 39.5814ZM46.9335 39.5814C46.9335 41.9412 48.847 43.8604 51.2001 43.8604C53.5532 43.8604 55.4667 41.9412 55.4667 39.5814C55.4667 37.2216 53.5532 35.3024 51.2001 35.3024C48.8471 35.3024 46.9335 37.2214 46.9335 39.5814ZM13.8667 38.5116H16V40.6511H13.8667V38.5116ZM52.2669 38.5116H50.1335V40.6511H52.2669V38.5116ZM2.13338 0H0V2.13957H2.13338V0Z" fill="#362600"/>
</svg>
