<svg width="64" height="60" viewBox="0 0 64 60" fill="none" xmlns="http://www.w3.org/2000/svg">
<path fill-rule="evenodd" clip-rule="evenodd" d="M63.61 25.3979C63.558 25.11 63.4089 24.8492 63.1878 24.6601C61.1179 22.89 60.7683 20.9381 60.4874 19.3698L60.4874 19.3696L60.4507 19.1653C60.3537 18.63 59.9284 18.2175 59.3954 18.1417C59.2114 18.1156 59.0167 18.1022 58.8165 18.1022C57.6269 18.1022 55.9509 18.6089 54.8883 19.7407C54.707 19.934 54.5907 20.1801 54.5559 20.4441C54.4665 21.1232 54.4205 21.7446 54.38 22.2929C54.2269 24.3591 54.0915 24.5783 53.4689 24.7774C53.0787 24.9023 52.7737 25.2122 52.6523 25.6072C52.0659 27.5156 51.2878 29.3418 50.346 31.0648C49.8809 30.1671 49.3669 29.3596 48.8885 28.6083C47.7185 26.7707 46.7943 25.319 47.11 23.5199C48.1333 17.689 47.6139 13.2965 45.5659 10.4644C44.4254 8.88726 42.8007 7.81202 40.8262 7.30972C41.2192 4.20973 43.3502 2.8043 44.5298 2.48472C45.1967 2.30415 45.5924 1.61116 45.4137 0.937005C45.2349 0.262974 44.5494 -0.137477 43.8828 0.0434781C41.4472 0.70323 38.8455 3.12527 38.3487 6.9938C36.3536 6.98812 34.5418 7.60402 33.0508 8.80828C30.3263 11.0089 28.6801 15.0983 28.158 20.9627C28.0009 22.7274 26.8716 23.757 25.3085 25.1818C24.0326 26.3448 22.6114 27.6434 21.4729 29.6064C20.0548 29.0226 18.5335 28.6439 16.945 28.5068C17.3953 25.5307 19.4659 24.1717 20.6226 23.8585C21.2895 23.6779 21.6853 22.9849 21.5065 22.3109C21.3278 21.6367 20.6423 21.2364 19.9756 21.4174C19.3475 21.5874 18.7086 21.8762 18.0973 22.2752C17.8129 20.8563 17.1249 19.5254 16.0831 18.4724C14.6874 17.0614 12.8315 16.2844 10.8575 16.2844C10.2114 16.2844 9.56788 16.3697 8.94476 16.5378C8.51263 16.6544 8.17501 16.9957 8.05963 17.4326C7.38051 20.0036 8.11376 22.7687 9.97326 24.6489C11.2671 25.9569 12.957 26.7189 14.7695 26.8234C14.6115 27.3463 14.494 27.9028 14.4258 28.4929C6.36963 29.1048 0 35.9265 0 44.2241C0 52.9229 7.00063 60 15.6054 60C18.8034 60 21.8496 59.0391 24.4575 57.2164C24.8683 57.3986 25.2804 57.574 25.6944 57.7391C29.4564 59.2392 33.2584 59.9999 36.9945 59.9999C43.004 59.9999 48.5815 58.0149 53.124 54.2595C57.8719 50.3342 61.3712 44.5261 63.2432 37.4631C63.854 35.1594 64.3929 29.7315 63.61 25.3979ZM26.9829 27.0588L26.9829 27.0588C28.6643 25.526 30.4029 23.941 30.648 21.1894C31.1066 16.0381 32.44 12.5368 34.6114 10.783C35.9004 9.74186 37.4936 9.3404 39.3474 9.59086C41.1782 9.8379 42.5914 10.6336 43.5478 11.9562C45.1778 14.2103 45.5482 17.9524 44.6484 23.0786C44.1613 25.8535 45.4956 27.9491 46.786 29.9759L46.7863 29.9763C47.5095 31.1122 48.254 32.2835 48.7603 33.6467C44.5474 39.7969 38.1548 44.282 31.1206 45.9243C31.1806 45.3605 31.2111 44.7925 31.2111 44.2241C31.2111 38.5239 28.2048 33.5202 23.711 30.7476C24.6463 29.1916 25.8305 28.1094 26.9829 27.0588ZM10.3366 18.8394C10.1834 20.3113 10.6906 21.8 11.7408 22.8617C12.6643 23.7953 13.8923 24.3095 15.1988 24.3093H15.199C15.3729 24.3093 15.5466 24.3 15.7193 24.2815C15.8726 22.8098 15.3653 21.3209 14.315 20.2592C13.3915 19.3256 12.1634 18.8115 10.8573 18.8115C10.683 18.8115 10.5094 18.8209 10.3366 18.8394ZM15.6054 57.4727C8.37901 57.4727 2.5 51.5295 2.5 44.2241C2.5 36.9187 8.37901 30.9755 15.6054 30.9755C22.8319 30.9755 28.711 36.9187 28.711 44.2241C28.711 44.9525 28.6521 45.6796 28.5358 46.3949C27.7316 46.4998 26.922 46.5664 26.1086 46.5944C26.2799 45.8194 26.3694 45.0275 26.3694 44.2241C26.3694 42.801 26.0985 41.4117 25.5644 40.0951C25.3025 39.4496 24.5726 39.1406 23.9335 39.4055C23.2949 39.6704 22.9894 40.4085 23.2514 41.0542C23.6615 42.065 23.8694 43.1314 23.8694 44.2241C23.8694 45.0187 23.758 45.7992 23.5403 46.555C21.7513 46.4386 19.9596 46.1398 18.1944 45.6616C17.8349 45.5642 17.4509 45.6339 17.1473 45.8518C16.0363 46.6492 14.9165 47.6521 14.2525 49.5751C14.0814 50.0707 14.2311 50.6217 14.6288 50.9593C16.925 52.9093 19.3241 54.5623 21.7954 55.9041C19.9038 56.9341 17.7975 57.4727 15.6054 57.4727ZM36.9947 57.4727C48.489 57.4727 57.3988 49.748 60.8284 36.8091C61.3809 34.7245 61.8014 29.9993 61.2223 26.2763C59.1754 24.3719 58.5277 22.3095 58.1945 20.7028C57.7528 20.8018 57.3122 20.9945 56.9797 21.2379C56.9334 21.6703 56.903 22.0801 56.8734 22.4796L56.8733 22.4808L56.8733 22.4816C56.7437 24.2325 56.61 26.0375 54.8582 26.9286C53.9879 29.576 52.7539 32.1219 51.2133 34.4848C51.1932 34.5186 51.1713 34.5515 51.148 34.5833C49.1964 37.5534 46.76 40.232 43.9489 42.4549C38.4197 46.8272 31.951 49.1383 25.2424 49.1383C22.872 49.1383 20.485 48.8418 18.1378 48.2564C17.6981 48.6092 17.289 49.0225 16.9581 49.623C23.2013 54.6915 30.2844 57.4727 36.9947 57.4727ZM40.3128 12.1913C39.6765 11.9219 38.9437 12.2246 38.6767 12.8681C38.4097 13.5117 38.7093 14.2522 39.346 14.5221C40.2554 14.9075 40.7575 17.6814 39.9578 22.2372C39.8372 22.9244 40.2904 23.5803 40.9703 23.7023C41.0442 23.7156 41.1177 23.722 41.1902 23.722C41.7848 23.722 42.312 23.2913 42.4195 22.679C43.1348 18.605 43.3498 13.4785 40.3128 12.1913ZM46.824 48.1082C47.3763 47.6893 48.1612 47.8014 48.5753 48.3598C48.9895 48.9182 48.879 49.7091 48.3268 50.1279L48.2982 50.1492C48.0754 50.3137 47.8163 50.3931 47.5595 50.3931C47.1742 50.3931 46.7939 50.2143 46.5495 49.8764C46.1424 49.3133 46.261 48.5248 46.8178 48.1127L46.824 48.1082ZM45.7067 50.4032C45.392 49.782 44.639 49.536 44.0244 49.8538C39.746 52.0662 36.1364 51.9786 36.0831 51.9762C35.396 51.9521 34.8155 52.4934 34.7885 53.1897C34.7615 53.887 35.2988 54.4744 35.9886 54.5017C36.0078 54.5025 36.075 54.5048 36.1866 54.5048C37.08 54.5048 40.8034 54.3581 45.1629 52.1036C45.7775 51.786 46.0209 51.0245 45.7067 50.4032ZM23.2141 36.5272L23.2553 36.5689C23.7408 37.065 23.7365 37.8653 23.2458 38.3559C23.0021 38.5996 22.6843 38.7213 22.3666 38.7213C22.0445 38.7213 21.7225 38.5963 21.478 38.3463L21.4511 38.3192C20.9616 37.827 20.9595 37.0268 21.4464 36.532C21.9334 36.0372 22.7248 36.0353 23.2141 36.5272Z" fill="#00333A"/>
</svg>
