<svg width="64" height="54" viewBox="0 0 64 54" fill="none" xmlns="http://www.w3.org/2000/svg">
<path fill-rule="evenodd" clip-rule="evenodd" d="M52.2211 21.0845C52.1186 21.3967 52.0058 21.711 51.8833 22.0261C58.8438 23.8346 64.0003 30.2013 64 37.7559C64 46.7129 56.7513 54 47.8413 54C40.3381 54 34.013 48.8325 32.2026 41.8518C31.4655 42.4552 30.826 42.9839 30.2646 43.458C29.1628 44.3886 27.812 44.854 26.4616 44.854C25.1101 44.854 23.7591 44.3883 22.6569 43.4565C21.5409 42.5131 20.0753 41.3213 18.5234 40.0596L18.5231 40.0593L18.523 40.0593C12.4188 35.0962 4.82224 28.9196 2.73691 25.3843C1.35904 23.0486 0.531539 20.9086 0.13254 18.6497C0.0860396 18.3866 0.0449146 18.1191 0.0105397 17.8544C-0.0783353 17.1714 0.404664 16.5457 1.08929 16.457C1.77391 16.3683 2.40091 16.8502 2.48979 17.5334C2.51929 17.7607 2.55466 17.9906 2.59454 18.2167C2.94004 20.1729 3.66991 22.0484 4.89141 24.1191C6.7492 27.2685 14.4666 33.5434 20.1019 38.1253L20.1027 38.126L20.1196 38.1397C21.6746 39.4041 23.1428 40.5979 24.2729 41.5533C25.5408 42.6249 27.3813 42.6252 28.6494 41.5541C29.4891 40.8449 30.494 40.0211 31.7305 39.0149C31.6986 38.5993 31.6824 38.1795 31.6824 37.7559C31.6824 28.7989 38.9313 21.5118 47.8413 21.5118C48.3555 21.5118 48.8641 21.5362 49.3663 21.5837C49.5464 21.1574 49.7046 20.7356 49.8451 20.3077C50.4385 18.5012 50.6809 16.659 50.5859 14.676C50.2511 7.70415 43.6816 2.49463 38.0315 2.49463C33.6121 2.49463 30.0819 5.02355 28.371 6.53098C27.299 7.4754 25.6712 7.48999 24.5844 6.56503C22.7985 5.04488 19.1699 2.49463 14.9337 2.49463C11.4995 2.49463 7.80791 4.38683 5.29966 7.43262C4.86141 7.96482 4.07379 8.04178 3.54029 7.60437C3.00691 7.16708 2.92991 6.38106 3.36816 5.84886C6.33904 2.24119 10.7707 0 14.9337 0C19.9717 0 24.1593 2.92406 26.207 4.66709C26.355 4.79331 26.5693 4.79057 26.7163 4.66098C28.692 2.92019 32.7891 0 38.0316 0C41.5505 0 45.2291 1.55919 48.1243 4.2777C51.1398 7.10921 52.9009 10.7597 53.0831 14.5567C53.193 16.8489 52.9111 18.9842 52.2211 21.0845ZM34.1825 37.7558C34.1825 45.3373 40.3099 51.5054 47.8415 51.5054C55.373 51.5054 61.5003 45.3373 61.5004 37.7558C61.5004 30.1743 55.373 24.0062 47.8415 24.0062C40.3099 24.0062 34.1825 30.1743 34.1825 37.7558ZM0.387789 12.467C0.582539 12.941 1.06891 13.2549 1.58229 13.2371C2.09979 13.2191 2.55554 12.8771 2.72491 12.3911C2.89366 11.9071 2.72941 11.3509 2.33454 11.0267C1.92041 10.6867 1.31566 10.6519 0.864914 10.942C0.364289 11.2639 0.15854 11.918 0.387789 12.467ZM53.8288 33.4702H52.1108V31.7301C52.1108 30.1999 50.8688 28.9552 49.3421 28.9552H46.3408C44.8141 28.9552 43.5721 30.1999 43.5721 31.7301V33.4702H41.8541C40.3275 33.4702 39.0855 34.715 39.0855 36.2451V39.2666C39.0855 40.7967 40.3275 42.0415 41.8541 42.0415H43.5721V43.7818C43.5721 45.3118 44.8141 46.5567 46.3408 46.5567H49.3421C50.8688 46.5567 52.1108 45.3119 52.1108 43.7818V42.0415H53.8288C55.3554 42.0415 56.5974 40.7967 56.5974 39.2666V36.2451C56.5975 34.715 55.3554 33.4702 53.8288 33.4702ZM54.0975 39.2665C54.0975 39.421 53.977 39.5469 53.8289 39.5469H50.8609C50.1706 39.5469 49.6109 40.1052 49.6109 40.7941V43.7816C49.6109 43.9362 49.4904 44.062 49.3423 44.062H46.3409C46.1926 44.062 46.0723 43.9363 46.0723 43.7816V40.7941C46.0723 40.1052 45.5125 39.5469 44.8223 39.5469H41.8543C41.706 39.5469 41.5856 39.4211 41.5856 39.2665V36.245C41.5856 36.0903 41.7061 35.9646 41.8543 35.9646H44.8223C45.5125 35.9646 46.0723 35.4062 46.0723 34.7174V31.7299C46.0723 31.5753 46.1928 31.4496 46.3409 31.4496H49.3423C49.4904 31.4496 49.6109 31.5753 49.6109 31.7299V34.7174C49.6109 35.4062 50.1706 35.9646 50.8609 35.9646H53.8289C53.9771 35.9646 54.0975 36.0903 54.0975 36.245V39.2665Z" fill="#360400"/>
</svg>
