<svg width="25" height="32" viewBox="0 0 25 32" fill="none" xmlns="http://www.w3.org/2000/svg">
<path fill-rule="evenodd" clip-rule="evenodd" d="M23.9823 9.375C23.9823 11.4048 22.5679 13.1159 20.6567 13.6076C23.4868 16.7273 25.0001 19.2343 25 22.1875C25 23.8721 24.386 25.6233 23.2243 27.2521C21.1036 30.2251 17.5964 32 13.8421 32H11.1579C7.40371 32 3.89638 30.2251 1.77577 27.2521C0.613997 25.6234 0 23.8721 0 22.1875C0 18.6271 2.20554 15.7109 6.27546 11.5752C7.1102 10.7269 7.56999 9.60894 7.56999 8.42719V5.5625C7.56999 5.50481 7.5366 4.96706 6.3782 3.87675C5.69792 3.2365 5.48506 2.26819 5.83596 1.41006C6.18615 0.553438 7.01993 0 7.96001 0H14.3607C16.0532 0 17.4301 1.35281 17.4301 3.01562V5.51794C18.0559 5.18781 18.7706 5 19.5293 5C21.9847 5 23.9823 6.96263 23.9823 9.375ZM21.4377 9.375C21.4377 8.34113 20.5816 7.5 19.5293 7.5C18.477 7.5 17.6209 8.34113 17.6209 9.375C17.6209 10.4089 18.477 11.25 19.5293 11.25C20.5816 11.25 21.4377 10.4089 21.4377 9.375ZM21.1406 25.8173C19.4957 28.1233 16.7673 29.5 13.8422 29.5H11.1579C8.23278 29.5 5.5044 28.1233 3.85962 25.8174C3.01159 24.6285 2.54454 23.3394 2.54454 22.1875C2.54454 19.7768 3.94759 17.5374 8.10479 13.3129C9.40079 11.9959 10.1145 10.2608 10.1145 8.42719V5.5625C10.1145 4.59144 9.60868 3.58581 8.57108 2.5H14.3607C14.6501 2.5 14.8855 2.73131 14.8855 3.01562V8.42625C14.8855 10.2614 15.5994 11.9967 16.8957 13.3125C21.0526 17.5319 22.4555 19.7714 22.4555 22.1875C22.4555 23.3394 21.9885 24.6285 21.1406 25.8173ZM8.84226 19H16.1578C16.8605 19 17.4301 18.4404 17.4301 17.75C17.4301 17.0596 16.8605 16.5 16.1578 16.5H8.84226C8.13959 16.5 7.56999 17.0596 7.56999 17.75C7.56999 18.4404 8.13959 19 8.84226 19Z" fill="#006672"/>
</svg>
